<svg width="1440" height="951" viewBox="0 0 1440 951" fill="none" xmlns="http://www.w3.org/2000/svg">
<path d="M355.14 211C334.332 303.857 109.71 422.13 0 469.659V592.234C0 592.234 300.701 436.055 355.14 340.079C494.195 94.9285 584 88 584 88C584 88 646.5 38.5 1004.4 563.216C1141.53 764.276 1371.38 953.123 1443.57 950.955V844.389C1443.57 844.389 1404.81 848.707 1339.5 823.5C1116.68 737.5 1135.95 616.249 1078.93 511.685C1034.74 428.634 875.909 206.263 781.809 94.9284C666.5 -41.5 545 1.38329 494.195 30.3888C456.514 51.902 375.949 118.143 355.14 211Z" fill="#E7E7E7" fill-opacity="0.5"/>
</svg>
